<svg id="Layer_1" data-name="Layer 1" xmlns="http://www.w3.org/2000/svg" viewBox="0 0 303 303"><defs><style>.cls-1{fill:#695d4f;}.cls-2{fill:#594f44;}.cls-3{fill:#fdbf9d;}.cls-4{fill:#fddfcf;}.cls-5{fill:#fdd3bc;}.cls-6{fill:#c23b5d;}.cls-7{fill:#eca4b7;}.cls-8{fill:#f1bcca;}.cls-10,.cls-9{fill:none;stroke-linecap:round;stroke-linejoin:round;}.cls-9{stroke:#231f20;stroke-width:6.05px;}.cls-10{stroke:#a14e32;stroke-width:3.34px;}</style></defs><title>logo</title><ellipse class="cls-1" cx="132.71" cy="129.39" rx="117.98" ry="108.47" transform="translate(-35.43 51.4) rotate(-19.39)"/><ellipse class="cls-2" cx="134.03" cy="133.13" rx="114.62" ry="104.5" transform="translate(-36.6 52.05) rotate(-19.39)"/><ellipse class="cls-1" cx="78.05" cy="221.09" rx="71.54" ry="61.8" transform="translate(-36.4 16.46) rotate(-9.77)"/><ellipse class="cls-2" cx="82.57" cy="223.25" rx="67.46" ry="58.9" transform="translate(-36.7 17.26) rotate(-9.77)"/><ellipse class="cls-2" cx="54.53" cy="185.27" rx="37.35" ry="45.29" transform="translate(-138.43 177.31) rotate(-71.23)"/><ellipse class="cls-1" cx="224.72" cy="166.64" rx="71.54" ry="61.8" transform="translate(-7.93 11.26) rotate(-2.82)"/><ellipse class="cls-2" cx="220.02" cy="168.43" rx="67.76" ry="60.14" transform="translate(-8.02 11.03) rotate(-2.82)"/><ellipse class="cls-2" cx="228.62" cy="123.99" rx="45.29" ry="47.72" transform="translate(1.31 250.38) rotate(-57.55)"/><path class="cls-3" d="M161.81,243.87l19.92-7C231,219.5,257.17,165,239.82,115.67h0c-17.36-49.3-71.89-75.44-121.19-58.09l-19.92,7C49.41,82,23.27,136.48,40.62,185.78h0C58,235.09,112.51,261.22,161.81,243.87Z"/><path class="cls-4" d="M121,58.65h21.67a85.88,85.88,0,0,1,85.88,85.88v18.31a85.87,85.87,0,0,1-85.87,85.87H121a85.88,85.88,0,0,1-85.88-85.88V144.52A85.87,85.87,0,0,1,121,58.65Z" transform="translate(-43.55 52.5) rotate(-19.39)"/><path class="cls-5" d="M175.18,239.17h0a84.48,84.48,0,0,0,51.48-107.41l-7.18-20.39A84.48,84.48,0,0,0,112.07,59.89h0A84.48,84.48,0,0,0,60.59,167.3l7.18,20.39A84.47,84.47,0,0,0,175.18,239.17Z"/><path class="cls-6" d="M168.08,165.9a19,19,0,0,1-3.47,18.29,22.84,22.84,0,0,1-25.2,7.1A18.68,18.68,0,0,1,128,180Z"/><path class="cls-7" d="M164.62,184.19a22.6,22.6,0,0,1-10.13,7.09,22.3,22.3,0,0,1-15.08,0,17.66,17.66,0,0,1,3.3-6,14.45,14.45,0,0,1,9.21-5,15.85,15.85,0,0,1,9.9,2.06A17,17,0,0,1,164.62,184.19Z"/><path class="cls-8" d="M161.82,182.3a14.19,14.19,0,0,1-6.24,4.41,15.71,15.71,0,0,1-12.87-1.43,14.45,14.45,0,0,1,9.21-5A15.85,15.85,0,0,1,161.82,182.3Z"/><path class="cls-2" d="M83.68,69.29h58.43a0,0,0,0,1,0,0v8.14a76.49,76.49,0,0,1-76.49,76.49H7.19a0,0,0,0,1,0,0v-8.14A76.49,76.49,0,0,1,83.68,69.29Z" transform="translate(-41.93 45) rotate(-26.48)"/><path class="cls-9" d="M92.87,171s8.26-13,19.69-11"/><line class="cls-9" x1="94.71" y1="168.58" x2="88.25" y2="170.42"/><path class="cls-9" d="M189.85,136.9s-14.6-5-22.23,3.77"/><line class="cls-9" x1="186.88" y1="136.14" x2="193.06" y2="133.52"/><path class="cls-2" d="M162.34,108.4c38.91,18.15,86.48-1.51,86.48-1.51s-15.53-49.06-54.45-67.21-86.48,1.51-86.48,1.51S123.42,90.26,162.34,108.4Z"/><ellipse class="cls-4" cx="34.46" cy="201.63" rx="22.12" ry="24.73" transform="translate(-122.97 71.03) rotate(-40.62)"/><path class="cls-10" d="M22.05,194.25s13.39-5.57,20.33,6.9"/><ellipse class="cls-3" cx="254.55" cy="124.16" rx="24.73" ry="22.12" transform="translate(122.28 374.59) rotate(-88.16)"/><path class="cls-10" d="M259.59,110.63s-13.92,4.05-11.52,18.12"/></svg>